<mxfile host="65bd71144e">
    <diagram id="Wku7nvFoXdZ8pOurJkJv" name="Page-1">
        <mxGraphModel dx="443" dy="572" grid="1" gridSize="10" guides="1" tooltips="1" connect="1" arrows="1" fold="1" page="1" pageScale="1" pageWidth="850" pageHeight="1100" background="#ffffff" math="0" shadow="0">
            <root>
                <mxCell id="0"/>
                <mxCell id="1" parent="0"/>
                <mxCell id="2" value="Actor&lt;br&gt;Usuario" style="shape=umlActor;verticalLabelPosition=bottom;verticalAlign=top;html=1;outlineConnect=0;strokeColor=#000000;fillColor=none;fontColor=#000000;" parent="1" vertex="1">
                    <mxGeometry x="130" y="230" width="30" height="60" as="geometry"/>
                </mxCell>
                <mxCell id="7" style="edgeStyle=none;html=1;fontColor=#000000;endArrow=blockThin;endFill=0;strokeColor=#000000;" parent="1" source="5" edge="1">
                    <mxGeometry relative="1" as="geometry">
                        <mxPoint x="145" y="320" as="targetPoint"/>
                    </mxGeometry>
                </mxCell>
                <mxCell id="5" value="Actor&lt;br&gt;Administrador" style="shape=umlActor;verticalLabelPosition=bottom;verticalAlign=top;html=1;outlineConnect=0;strokeColor=#000000;fillColor=none;fontColor=#000000;" parent="1" vertex="1">
                    <mxGeometry x="130" y="400" width="30" height="60" as="geometry"/>
                </mxCell>
                <mxCell id="9" value="" style="rounded=0;whiteSpace=wrap;html=1;strokeColor=#000000;fontColor=#000000;fillColor=none;" parent="1" vertex="1">
                    <mxGeometry x="200" y="220" width="150" height="250" as="geometry"/>
                </mxCell>
                <mxCell id="10" value="Red Social" style="text;strokeColor=none;fillColor=none;align=left;verticalAlign=middle;spacingLeft=4;spacingRight=4;overflow=hidden;points=[[0,0.5],[1,0.5]];portConstraint=eastwest;rotatable=0;whiteSpace=wrap;html=1;fontColor=#000000;" parent="1" vertex="1">
                    <mxGeometry x="240" y="190" width="90" height="30" as="geometry"/>
                </mxCell>
                <mxCell id="15" style="edgeStyle=none;html=1;entryX=0.845;entryY=0.338;entryDx=0;entryDy=0;entryPerimeter=0;strokeColor=#000000;fontColor=#000000;endArrow=none;endFill=0;" parent="1" source="11" target="2" edge="1">
                    <mxGeometry relative="1" as="geometry"/>
                </mxCell>
                <mxCell id="11" value="Publicar mensaje" style="ellipse;whiteSpace=wrap;html=1;strokeColor=#000000;fontColor=#000000;fillColor=none;" parent="1" vertex="1">
                    <mxGeometry x="210" y="230" width="120" height="30" as="geometry"/>
                </mxCell>
                <mxCell id="16" style="edgeStyle=none;html=1;strokeColor=#000000;fontColor=#000000;endArrow=none;endFill=0;" parent="1" source="12" edge="1">
                    <mxGeometry relative="1" as="geometry">
                        <mxPoint x="160" y="249.9999999999999" as="targetPoint"/>
                    </mxGeometry>
                </mxCell>
                <mxCell id="12" value="Conectar con amigos" style="ellipse;whiteSpace=wrap;html=1;strokeColor=#000000;fontColor=#000000;fillColor=none;" parent="1" vertex="1">
                    <mxGeometry x="210" y="280" width="120" height="30" as="geometry"/>
                </mxCell>
                <mxCell id="21" style="edgeStyle=none;html=1;strokeColor=#000000;endArrow=none;endFill=0;exitX=0;exitY=0.5;exitDx=0;exitDy=0;" edge="1" parent="1" source="13">
                    <mxGeometry relative="1" as="geometry">
                        <mxPoint x="160" y="249.9999999999999" as="targetPoint"/>
                    </mxGeometry>
                </mxCell>
                <mxCell id="13" value="Eliminar publicacion" style="ellipse;whiteSpace=wrap;html=1;strokeColor=#000000;fontColor=#000000;fillColor=none;" parent="1" vertex="1">
                    <mxGeometry x="210" y="320" width="120" height="30" as="geometry"/>
                </mxCell>
                <mxCell id="18" style="edgeStyle=none;html=1;entryX=1;entryY=0.3333333333333333;entryDx=0;entryDy=0;entryPerimeter=0;strokeColor=#000000;fontColor=#000000;endArrow=none;endFill=0;exitX=0;exitY=0.5;exitDx=0;exitDy=0;" parent="1" source="14" target="5" edge="1">
                    <mxGeometry relative="1" as="geometry"/>
                </mxCell>
                <mxCell id="14" value="Moderar contenido" style="ellipse;whiteSpace=wrap;html=1;strokeColor=#000000;fontColor=#000000;fillColor=none;" parent="1" vertex="1">
                    <mxGeometry x="210" y="370" width="120" height="30" as="geometry"/>
                </mxCell>
                <mxCell id="20" style="edgeStyle=none;html=1;entryX=1;entryY=0.3333333333333333;entryDx=0;entryDy=0;entryPerimeter=0;strokeColor=#000000;endArrow=none;endFill=0;" edge="1" parent="1" source="19" target="5">
                    <mxGeometry relative="1" as="geometry"/>
                </mxCell>
                <mxCell id="19" value="Gestionar configuraciones avanzadas" style="ellipse;whiteSpace=wrap;html=1;strokeColor=#000000;fontColor=#000000;fillColor=none;" vertex="1" parent="1">
                    <mxGeometry x="210" y="410" width="120" height="50" as="geometry"/>
                </mxCell>
            </root>
        </mxGraphModel>
    </diagram>
</mxfile>